<svg xmlns="http://www.w3.org/2000/svg" viewBox="0 0 512 512">
  <defs>
    <linearGradient id="grad" x1="0%" y1="0%" x2="100%" y2="100%">
      <stop offset="0%" style="stop-color:#3b82f6;stop-opacity:1" />
      <stop offset="50%" style="stop-color:#6366f1;stop-opacity:1" />
      <stop offset="100%" style="stop-color:#9333ea;stop-opacity:1" />
    </linearGradient>
  </defs>
  <!-- Modern geometric background -->
  <rect x="0" y="0" width="512" height="512" rx="100" fill="#000000"/>
  <rect x="40" y="40" width="432" height="432" rx="80" fill="url(#grad)"/>
  
  <!-- JR Monogram in modern style -->
  <g fill="white">
    <!-- J -->
    <path d="M 140 140 L 140 320 Q 140 372 192 372 L 220 372 L 220 320 L 192 320 Q 192 320 192 320 L 192 140 Z" fill="white" opacity="0.95"/>
    <!-- R -->
    <path d="M 280 140 L 280 372 L 332 372 L 332 260 L 360 260 L 420 372 L 480 372 L 400 240 Q 420 230 420 200 L 420 180 Q 420 140 380 140 L 280 140 Z M 332 192 L 360 192 Q 368 192 368 200 L 368 208 Q 368 216 360 216 L 332 216 Z" fill="white" opacity="0.95"/>
  </g>
  
  <!-- Subtle grid overlay -->
  <g opacity="0.1">
    <line x1="256" y1="0" x2="256" y2="512" stroke="white" stroke-width="1"/>
    <line x1="0" y1="256" x2="512" y2="256" stroke="white" stroke-width="1"/>
  </g>
</svg>